<?xml version="1.0" standalone="no"?><!DOCTYPE svg PUBLIC "-//W3C//DTD SVG 1.1//EN" "http://www.w3.org/Graphics/SVG/1.1/DTD/svg11.dtd"><svg t="1546242095404" class="icon" style="" viewBox="0 0 1024 1024" version="1.1" xmlns="http://www.w3.org/2000/svg" p-id="1125" xmlns:xlink="http://www.w3.org/1999/xlink" width="618" height="618"><defs><style type="text/css">html, * { user-select: text !important; }
</style></defs><path d="M741.6 938.9H69.7V64.5h671.9v397.6l-10-13.4c-6.6-8.9-14.1-17.4-22.1-25.2-40.9-39.9-95.3-61.9-153.2-61.9-5.6 0-11.2 0.2-16.8 0.6-44.9 3.3-88.6 20.8-123 49.3-48.1 39.9-76 98.1-76.5 159.7-0.5 61.5 26.5 120 74 160.6 33.1 28.3 75.2 46.4 118.7 50.9 7.9 0.8 15.9 1.2 23.8 1.2 41.1 0 81.1-11.3 115.6-32.6l31.7-20.5 37.9 86.2v121.9zM80.8 927.8h649.7V819.3l-31.7-72.1-20.8 13.4c-36.3 22.5-78.3 34.4-121.5 34.4-8.3 0-16.7-0.4-25-1.3-45.6-4.8-89.9-23.8-124.7-53.5-49.9-42.7-78.3-104.3-77.8-169.1S358.8 445 409.5 403c36.2-30 82.1-48.4 129.3-51.9 5.9-0.4 11.8-0.6 17.6-0.6 60.8 0 118 23.1 161 65.1 4.6 4.5 9 9.2 13.2 14.1v-354H80.8v852.1z" fill="#495460" p-id="1126"></path><path d="M320.5 751.1l-24.6-28.7 8.4-7.2 24.6 28.6zM358.988 745.532l29.358-30.592 8.008 7.686-29.358 30.591zM179.977 789.823l83.044-76.919 7.542 8.143-83.043 76.92zM283.7 409.8c-73.7 0-133.7-60-133.7-133.7 0-73.7 60-133.7 133.7-133.7 73.7 0 133.7 60 133.7 133.7 0 73.7-60 133.7-133.7 133.7z m0-256.3c-67.6 0-122.6 55-122.6 122.6s55 122.6 122.6 122.6 122.6-55 122.6-122.6-55-122.6-122.6-122.6z" fill="#495460" p-id="1127"></path><path d="M263.7 170.3c-49.9 9.4-87.8 53.2-87.8 105.8s37.9 96.5 87.8 105.9V170.3z" fill="#FDDA43" p-id="1128"></path><path d="M283.7 409.8h-5.5V142.4h5.5c73.7 0 133.7 60 133.7 133.7 0 32.7-12 64.2-33.7 88.7-25.3 28.6-61.8 45-100 45z m5.5-256.2v245c33-1.5 64.2-16.3 86.1-41.1 19.9-22.5 30.9-51.3 30.9-81.3 0.1-65.8-51.9-119.7-117-122.6zM491.4 174.8h165v11.1h-165zM491.4 217.4h165v11.1h-165zM656.4 295.8h-9.7v-11.1h9.7v11.1z m-20.8 0h-11.1v-11.1h11.1v11.1z m-22.1 0h-11.1v-11.1h11.1v11.1z m-22.2 0h-11.1v-11.1h11.1v11.1z m-22.2 0H558v-11.1h11.1v11.1z m-22.2 0h-11.1v-11.1h11.1v11.1z m-22.2 0h-11.1v-11.1h11.1v11.1z m-22.2 0h-11.1v-11.1h11.1v11.1zM656.4 337.2h-9.7v-11.1h9.7v11.1z m-20.8 0h-11.1v-11.1h11.1v11.1z m-22.1 0h-11.1v-11.1h11.1v11.1z m-22.2 0h-11.1v-11.1h11.1v11.1z m-22.2 0H558v-11.1h11.1v11.1z m-22.2 0h-11.1v-11.1h11.1v11.1z m-22.2 0h-11.1v-11.1h11.1v11.1z m-22.2 0h-11.1v-11.1h11.1v11.1z" fill="#495460" p-id="1129"></path><path d="M283.7 409.8h-5.5v-146l109.2 96.9-3.7 4.1c-25.3 28.6-61.8 45-100 45z m5.5-121.4v110.1c31.2-1.4 60.7-14.7 82.4-37.1l-82.4-73z" fill="#495460" p-id="1130"></path><path d="M304.1 321.4l45.3 40.2a108.34 108.34 0 0 1-45.3 20.4v-60.6z" fill="#F09069" p-id="1131"></path><path d="M380 368.9l-101.9-90.3V142.4h5.5c73.7 0 133.7 60 133.7 133.7 0 32.7-12 64.2-33.7 88.7l-3.6 4.1z m-90.8-95.3l89.7 79.6c17.7-21.8 27.3-48.9 27.3-77.1 0-65.7-52-119.6-117.1-122.5v120z" fill="#495460" p-id="1132"></path><path d="M304.1 266.9v-96.7c49.7 9.5 87.4 53.4 87.4 105.9 0 19.5-5.3 38.5-15.1 55l-72.3-64.2z" fill="#7ECBE1" p-id="1133"></path><path d="M284.4 730.2c-16.3 0-29.6-13.3-29.6-29.6s13.3-29.6 29.6-29.6 29.6 13.3 29.6 29.6-13.3 29.6-29.6 29.6z m0-48.1c-10.2 0-18.5 8.3-18.5 18.5s8.3 18.5 18.5 18.5 18.5-8.3 18.5-18.5-8.3-18.5-18.5-18.5zM343.1 792.5c-16.3 0-29.6-13.3-29.6-29.6s13.3-29.6 29.6-29.6 29.6 13.3 29.6 29.6c0.1 16.3-13.2 29.6-29.6 29.6z m0-48.1c-10.2 0-18.5 8.3-18.5 18.5s8.3 18.5 18.5 18.5 18.5-8.3 18.5-18.5c0.1-10.2-8.3-18.5-18.5-18.5zM562.1 762.4l-0.3-11.1c3.6-0.1 7.2-0.3 10.8-0.6l0.9 11.1c-3.8 0.2-7.6 0.5-11.4 0.6z m-11.4 0c-3.8-0.1-7.6-0.3-11.4-0.6l0.9-11.1c3.6 0.3 7.2 0.5 10.8 0.6l-0.3 11.1z m34.1-2l-1.6-11c3.5-0.5 7.1-1.1 10.6-1.8l2.2 10.9c-3.6 0.7-7.4 1.4-11.2 1.9z m-56.8 0c-3.7-0.5-7.5-1.2-11.2-1.9l2.2-10.9c3.5 0.7 7.1 1.3 10.6 1.8l-1.6 11z m79.2-4.5l-2.8-10.8c3.4-0.9 6.9-1.9 10.3-3l3.4 10.6c-3.6 1.1-7.3 2.2-10.9 3.2z m-101.6 0c-3.7-1-7.4-2.1-10.9-3.2l3.4-10.6c3.4 1.1 6.9 2.1 10.3 3l-2.8 10.8z m123.3-7.1l-4-10.3c3.3-1.3 6.7-2.7 9.9-4.2l4.6 10.1c-3.4 1.5-7 3-10.5 4.4z m-145 0c-3.5-1.4-7.1-2.9-10.5-4.5l4.7-10.1c3.2 1.5 6.6 2.9 9.9 4.2l-4.1 10.4z m165.7-9.6l-5.2-9.8c3.2-1.7 6.3-3.5 9.3-5.4l5.8 9.5c-3.2 2-6.5 4-9.9 5.7z m-186.4 0c-3.3-1.8-6.7-3.7-9.9-5.7l5.8-9.5c3 1.9 6.2 3.7 9.3 5.4l-5.2 9.8z m205.9-11.9l-6.3-9.1c2.9-2 5.9-4.2 8.7-6.4l6.9 8.7c-3.1 2.4-6.2 4.6-9.3 6.8z m-225.3 0c-3.1-2.2-6.2-4.4-9.2-6.8l6.9-8.7c2.8 2.2 5.7 4.4 8.6 6.4l-6.3 9.1z m-18-14.1c-2.3-2-4.5-4.1-6.8-6.3l-1.6-1.6 7.8-7.8 1.5 1.4c2.1 2 4.2 4 6.4 5.9l-7.3 8.4z m261.2 0l-7.4-8.3c2.1-1.9 4.2-3.9 6.3-5.9l1.5-1.5 7.8 7.9-1.6 1.6c-2.1 2.1-4.3 4.2-6.6 6.2z m-277.3-16.1c-2.5-2.8-5-5.8-7.3-8.8l8.7-6.9c2.2 2.8 4.5 5.6 6.9 8.2l-8.3 7.5z m293.5-0.1l-8.3-7.4c2.4-2.7 4.7-5.5 6.9-8.3l8.7 6.9c-2.3 3-4.8 6-7.3 8.8z m-307.7-17.9c-2.2-3.1-4.2-6.3-6.2-9.6l9.5-5.8c1.9 3.1 3.9 6.1 5.9 9l-9.2 6.4z m321.8 0l-9.1-6.3c2-2.9 4-6 5.9-9l9.5 5.8c-2 3.1-4.1 6.4-6.3 9.5z m11.9-19.5l-9.8-5.2c1.7-3.2 3.3-6.4 4.7-9.7l10.1 4.6c-1.6 3.5-3.3 6.9-5 10.3z m-345.5 0c-1.8-3.4-3.5-6.8-5-10.3l10.1-4.6c1.5 3.2 3.1 6.5 4.7 9.7l-9.8 5.2z m354.9-20.9l-10.4-3.9c1.3-3.4 2.4-6.8 3.5-10.2l10.6 3.3c-1.1 3.7-2.4 7.3-3.7 10.8z m-364.4 0c-1.3-3.5-2.6-7.2-3.7-10.8l10.6-3.3c1.1 3.4 2.2 6.8 3.5 10.2l-10.4 3.9z m371.1-21.8l-10.8-2.6c0.8-3.5 1.6-7 2.2-10.5l10.9 2c-0.6 3.7-1.4 7.5-2.3 11.1z m-377.8 0c-0.9-3.7-1.7-7.5-2.4-11.2l10.9-2c0.6 3.5 1.4 7 2.2 10.5l-10.7 2.7z m381.9-22.5l-11-1.3c0.4-3.5 0.7-7.1 0.9-10.7l11.1 0.6c-0.2 3.9-0.6 7.7-1 11.4z m-386 0c-0.4-3.8-0.8-7.6-1-11.4l11.1-0.6c0.2 3.6 0.5 7.2 0.9 10.7l-11 1.3z m376.2-22.7c0-3.6-0.2-7.2-0.4-10.8l11.1-0.8c0.3 3.8 0.4 7.6 0.4 11.4l-11.1 0.2z m-366.4-0.1h-11.1c0-3.8 0.2-7.6 0.4-11.4l11.1 0.7c-0.2 3.6-0.3 7.2-0.4 10.7z m364.9-21.4c-0.5-3.5-1-7.1-1.7-10.6l10.9-2.1c0.7 3.7 1.3 7.5 1.8 11.3l-11 1.4z m-363.4 0l-11-1.4c0.5-3.8 1.1-7.6 1.8-11.3l10.9 2.1c-0.7 3.5-1.3 7.1-1.7 10.6z m359.4-21.1c-0.9-3.5-1.9-6.9-3-10.3l10.6-3.4c1.2 3.6 2.2 7.3 3.2 11l-10.8 2.7z m-355.4 0l-10.7-2.8c0.9-3.7 2-7.4 3.2-11l10.6 3.4c-1.2 3.5-2.2 7-3.1 10.4z m348.7-20.4c-1.3-3.3-2.7-6.7-4.2-9.9l10.1-4.7c1.6 3.4 3.1 7 4.5 10.5l-10.4 4.1z m-342 0l-10.3-4.1c1.4-3.5 2.9-7.1 4.5-10.5l10.1 4.7c-1.6 3.2-3 6.5-4.3 9.9z m333-19.5c-1.7-3.1-3.5-6.3-5.4-9.3l9.4-5.9c2 3.2 4 6.5 5.8 9.9l-9.8 5.3z m-324 0l-9.8-5.3c1.8-3.4 3.7-6.7 5.8-9.9l9.4 5.9c-1.9 3-3.7 6.1-5.4 9.3z m11.4-18.3l-9-6.4c2.2-3.1 4.5-6.2 6.9-9.1l8.6 7c-2.3 2.8-4.4 5.7-6.5 8.5z m301.2 0c-2.1-2.9-4.3-5.8-6.5-8.6l8.6-7c2.4 2.9 4.7 6 6.9 9.1l-9 6.5z m-287.7-16.7l-8.2-7.5c2.5-2.8 5.2-5.6 7.9-8.2l7.8 8c-2.6 2.5-5.1 5.1-7.5 7.7z m274.1 0c-2.4-2.6-4.9-5.2-7.5-7.7l7.7-7.9c2.7 2.7 5.4 5.4 7.9 8.2l-8.1 7.4z m-12.3-12.3c-2.6-2.4-5.4-4.8-8.2-7l7-8.6c3 2.4 5.9 4.9 8.7 7.4l-7.5 8.2z m-246.4-2.7l-7.3-8.4c2.9-2.5 5.8-4.9 8.8-7.2l6.8 8.8c-2.8 2.1-5.6 4.4-8.3 6.8z m229.7-10.8c-2.9-2.1-5.9-4.1-8.9-6l5.9-9.4c3.2 2 6.4 4.2 9.5 6.4l-6.5 9zM451.8 426l-6.2-9.2c3.1-2.1 6.4-4.2 9.6-6.1l5.7 9.5c-3.1 1.9-6.2 3.8-9.1 5.8z m194.4-9.1c-3.1-1.7-6.3-3.4-9.6-4.9l4.8-10c3.4 1.6 6.9 3.4 10.2 5.2l-5.4 9.7z m-176-1.9l-5.1-9.8c3.4-1.8 6.8-3.4 10.3-5l4.5 10.1c-3.2 1.5-6.5 3-9.7 4.7z m156.5-7.3c-3.3-1.3-6.7-2.6-10.1-3.7l3.6-10.5c3.6 1.2 7.2 2.6 10.7 4l-4.2 10.2z m-136.8-1.5l-3.9-10.4c3.5-1.4 7.2-2.6 10.8-3.7l3.3 10.6c-3.4 1-6.9 2.2-10.2 3.5z m116.5-5.4c-3.4-1-7-1.8-10.5-2.6l2.3-10.8c3.7 0.8 7.4 1.7 11.1 2.7l-2.9 10.7z m-96-1.1l-2.7-10.8c3.7-0.9 7.4-1.8 11.1-2.5l2.1 10.9-10.5 2.4z m74.9-3.4c-3.5-0.6-7.1-1-10.7-1.4l1.1-11c3.8 0.4 7.6 0.9 11.3 1.4l-1.7 11z m-53.7-0.6l-1.5-11c3.8-0.5 7.6-0.9 11.3-1.2l0.8 11.1c-3.4 0.3-7 0.6-10.6 1.1z m32.3-1.5c-3.6-0.2-7.2-0.2-10.8-0.1l-0.2-11.1c3.8-0.1 7.6 0 11.4 0.1l-0.4 11.1z" fill="#495460" p-id="1134"></path><path d="M670.1 461.7c-30.4-29.6-70.8-46-113.7-46-42.9 0-83.3 16.3-113.7 45.9-62.7 61.2-62.7 160.9 0 222 30.4 29.7 70.8 46 113.8 46s83.3-16.3 113.7-46c30.4-29.6 47.1-69 47.1-111 0-41.8-16.8-81.2-47.2-110.9zM556.4 628.1c-34.7 0-62.8-28.2-62.8-62.8 0-34.7 28.2-62.8 62.8-62.8 34.7 0 62.8 28.1 62.8 62.8 0.1 34.7-28.1 62.8-62.8 62.8z" fill="#FDDA43" p-id="1135"></path><path d="M906.9 959.5c-12.5 0-24.4-4.7-33.3-13.3L729.8 807.6 699.1 747l-16.6 10.8c-37.3 24.3-81 37.2-126.1 37.2-8.3 0-16.7-0.4-24.9-1.3-45.7-4.8-90-23.8-124.7-53.5-50-42.7-78.3-104.4-77.8-169.2 0.5-64.8 29.8-126 80.5-168.1 36.2-30 82.1-48.4 129.3-51.9 5.9-0.4 11.8-0.6 17.7-0.6 60.8 0 117.9 23.1 160.9 65.1C794 490.3 806 608.2 745.9 696L735 711.9l61.9 29.9L940.1 880c9.1 8.8 14.1 20.5 14.2 33 0 12.5-4.9 24.2-13.9 33-9 8.7-20.9 13.5-33.5 13.5z m-168-158.6l142.4 137.2c6.8 6.6 15.9 10.2 25.6 10.2 9.7 0 18.9-3.7 25.7-10.4 6.9-6.7 10.6-15.6 10.6-25.1 0-9.5-3.9-18.3-10.8-25l-142-136.9-71.9-34.8 18.2-26.5c57-83.3 45.6-195.3-27.1-266.3-40.9-39.9-95.3-61.9-153.2-61.9-5.6 0-11.3 0.2-16.9 0.6-44.9 3.3-88.6 20.8-123 49.3-48.2 39.9-76 98.1-76.5 159.6s26.5 120.1 74 160.7c33.1 28.3 75.2 46.4 118.7 50.9 7.9 0.8 15.9 1.2 23.8 1.2 43 0 84.5-12.2 120.1-35.4l26.9-17.6 35.4 70.2z" fill="#495460" p-id="1136"></path><path d="M906.9 931.5c-5 0-9.7-1.9-13.3-5.3L753.2 790.9 727 739.3l53.1 25.6 140.1 135c3.6 3.5 5.6 8.1 5.6 13.1 0 4.9-1.9 9.6-5.5 13.1s-8.4 5.4-13.4 5.4z" fill="#7ECBE1" p-id="1137"></path><path d="M705.1 743l-7.7-8 25.5-24.9 7.7 8zM465.1 696.6l-8-7.6 62.7-65.9c-10.1-6.4-18.3-15.3-23.9-25.8l-62.4 65.6-8-7.6 74.2-77.9 3.1 8.3c5.2 13.7 15.2 24.8 28.4 31.3l6.8 3.3-72.9 76.3zM643.5 696.5l-70.2-76 7-3.2c13.1-6 23.8-17.1 29.2-30.5l3.3-8.1 73.3 79.5-8.2 7.5-61.8-67c-5.8 10.4-14.3 19.1-24.5 25.3l60.1 65-8.2 7.5z" fill="#495460" p-id="1138"></path><path d="M556.4 633.7c-37.7 0-68.4-30.7-68.4-68.4s30.7-68.4 68.4-68.4 68.4 30.7 68.4 68.4-30.7 68.4-68.4 68.4z m0-125.6c-31.6 0-57.3 25.7-57.3 57.3 0 31.6 25.7 57.3 57.3 57.3 31.6 0 57.3-25.7 57.3-57.3 0-31.6-25.7-57.3-57.3-57.3z" fill="#495460" p-id="1139"></path><path d="M595.3 565.3c0 21.5-17.4 38.9-38.9 38.9s-38.9-17.4-38.9-38.9 17.4-38.9 38.9-38.9 38.9 17.4 38.9 38.9z" fill="#F09069" p-id="1140"></path><path d="M516.7 621l-0.1-0.1c-0.4-0.3-0.8-0.6-1.2-0.8l-0.5-0.4c-0.1-0.1-0.2-0.1-0.2-0.2l3.9-3.9 2.7-4.8 0.9 0.6c0.4 0.3 0.6 0.5 0.9 0.7l-6.4 8.9zM529.8 628.3c-1.2-0.5-2.3-1-3.5-1.6l-0.4-0.2c-0.1 0-0.2-0.1-0.3-0.1l5-9.9c1.2 0.6 2.4 1.2 3.7 1.7l-4.5 10.1zM546.1 632.9c-0.5-0.1-1-0.2-1.6-0.2-1.7-0.3-3.5-0.7-5.2-1.1l2.6-10.8c1.8 0.4 3.7 0.9 5.6 1.1l-1.4 11zM566.8 632.9l-1.6-11h0.1c2-0.3 4-0.7 5.5-1.1l2.6 10.8c-0.4 0.1-0.9 0.2-1.4 0.3-1.6 0.4-3.4 0.7-5.2 1 0.1 0 0 0 0 0zM584.7 627.6l-4.4-10.2 1-0.5 2.4-1.2 5.5 9.6c-0.7 0.4-1.4 0.8-2.1 1.1l-1.2 0.6c-0.5 0.3-0.9 0.4-1.2 0.6zM595.6 621.3l-5.8-9.3 0.1-0.1v-0.1c0.1-0.1 0.3-0.2 0.4-0.3l0.6-0.5c0.8-0.6 1.4-1.1 2-1.6l7.1 8.6c-0.7 0.6-1.4 1.2-2.2 1.8l-0.7 0.5c-0.5 0.4-0.9 0.7-1.5 1zM601.1 617l-6.6-8.9 0.5-0.5c0.6-0.6 1.3-1.2 1.9-1.8l3.8 3.8-3.7-3.9 0.2 0.2-0.2-0.2 7.8 7.8-0.2-0.2 0.2 0.2-3.9-3.7 3.8 3.8-1.6 1.6-0.8 0.8c-0.5 0.5-0.9 0.8-1.2 1z m-4.2-11.1l3.9 3.9-3.9-3.9zM614.6 601.1l-7.8-5.2-1.5-0.5c0-0.2 0.1-0.3 0.1-0.4h-0.1l1.2-2.1 9.8 5.1c-0.2 0.5-0.5 0.9-0.7 1.4l-0.3 0.5c-0.1 0.4-0.4 0.8-0.7 1.2zM619.8 591l-10.3-4.2 0.2-0.4c1.2-3 2.1-6.1 2.8-9.2l10.9 2.3c-0.7 3.6-1.8 7.1-3.1 10.5l-0.2 0.5c-0.1 0.1-0.2 0.3-0.3 0.5z m3.8-12.6l-10.9-2.1c0.6-3 0.9-6 1-9.1v-1.8c0-2.7-0.2-5.5-0.6-8.3l11-1.5c0.5 3.3 0.7 6.6 0.7 9.8v1c0 4-0.5 8.1-1.2 12z" fill="#495460" p-id="1141"></path><path d="M518.9 615.6c-0.1 0-0.2-0.1-0.2-0.2 0 0.2 0.1 0.2 0.2 0.2z m9.2 5.8l0.6 0.3c1.1 0.5 2.1 1 3.3 1.5l-3.9-1.8z m12.6 4.8c2 0.5 4.1 0.9 6.1 1.2-2-0.3-4-0.7-6.1-1.2z m25.3 1.2z" fill="#FDDA43" p-id="1142"></path><path d="M516.7 621l-0.1-0.1c-0.4-0.3-0.8-0.6-1.2-0.8l-0.5-0.4c-0.1-0.1-0.2-0.1-0.2-0.2l3.9-3.9 2.7-4.8 0.9 0.6c0.4 0.3 0.6 0.5 0.9 0.7l-6.4 8.9zM529.8 628.3c-1.2-0.5-2.3-1-3.5-1.6l-0.4-0.2c-0.1 0-0.2-0.1-0.3-0.1l5-9.9c1.2 0.6 2.4 1.2 3.7 1.7l-4.5 10.1zM546.1 632.9c-2.2-0.3-4.4-0.8-6.7-1.3l2.6-10.8c1.8 0.4 3.7 0.9 5.6 1.1l-1.5 11zM584.7 627.6l-4.4-10.2 1-0.5 2.4-1.2 5.5 9.6c-0.7 0.4-1.4 0.8-2.1 1.1l-1.2 0.6c-0.5 0.3-0.9 0.4-1.2 0.6zM614.6 601.1l-7.8-5.2-1.5-0.5c0-0.2 0.1-0.3 0.1-0.4h-0.1l1.2-2.1 9.8 5.1c-0.2 0.5-0.5 0.9-0.7 1.4l-0.3 0.5c-0.1 0.4-0.4 0.8-0.7 1.2zM619.8 591l-10.3-4.2c2.8-6.8 4.2-14.1 4.2-21.5 0-2.8-0.2-5.8-0.6-8.8l11-1.6c0.5 3.5 0.8 7 0.8 10.4-0.1 9-1.8 17.6-5.1 25.7zM728.5 720.1l-7.7-7.9 2.1-2.1 7.7 8z" fill="#495460" p-id="1143"></path><path d="M680.7 668.7l-70.1-76 8.1-7.5 70.2 76z" fill="#495460" p-id="1144"></path><path d="M614.7 601.1l-7-5-2.3-0.8c0.1-0.2 0.2-0.5 0.3-0.7l0.5-1s0.2-0.3 0.3-0.7l1-1.8c0.3-0.5 0.5-0.9 0.6-1.3l0.5-1c0.3-0.5 0.5-1.1 0.7-1.6l0.3-0.6 5 2.2h5.6v1.2l-0.7 1.6c-0.3 0.6-0.5 1.2-0.8 1.8l-0.6 1.3c-0.2 0.5-0.5 1-0.7 1.4l-0.6 1.1c-0.1 0.3-0.3 0.5-0.4 0.8-0.2 0.4-0.4 0.8-0.7 1.2l-0.3 0.4c-0.2 0.7-0.4 1.1-0.7 1.5z" fill="#495460" p-id="1145"></path><path d="M516.7 621l-0.1-0.1c-0.4-0.3-0.8-0.6-1.2-0.8l-0.5-0.4c-0.1-0.1-0.2-0.1-0.2-0.2l3.9-3.9 2.7-4.8 0.9 0.6c0.4 0.3 0.6 0.5 0.9 0.7l-6.4 8.9z" fill="#495460" p-id="1146"></path><path d="M529.8 628.3c-1.2-0.5-2.3-1-3.5-1.6l-0.4-0.2c-0.1 0-0.2-0.1-0.3-0.1l5-9.9c1.2 0.6 2.4 1.2 3.7 1.7l-4.5 10.1z" fill="#495460" p-id="1147"></path><path d="M584.7 627.6l-4.4-10.2 1-0.5 2.4-1.2 5.5 9.6c-0.7 0.4-1.4 0.8-2.1 1.1l-1.2 0.6c-0.5 0.3-0.9 0.4-1.2 0.6z" fill="#495460" p-id="1148"></path><path d="M171.8 467.6H296v11.1H171.8z" fill="#495460" p-id="1149"></path><path d="M171.8 513.5H296v11.1H171.8z" fill="#495460" p-id="1150"></path><path d="M171.8 559.3H296v11.1H171.8z" fill="#495460" p-id="1151"></path><path d="M171.8 605.2H296v11.1H171.8z" fill="#495460" p-id="1152"></path><path d="M671.1 857.1H660V846h11.1v11.1z m-22.2 0h-11.1V846h11.1v11.1z m-22.2 0h-11.1V846h11.1v11.1z m-22.2 0h-11.1V846h11.1v11.1z m-22.1 0h-11.1V846h11.1v11.1z m-22.2 0h-11.1V846h11.1v11.1z m-22.2 0h-11.1V846H538v11.1z m-22.2 0h-11.1V846h11.1v11.1z m-22.2 0h-11.1V846h11.1v11.1z m-22.2 0h-11.1V846h11.1v11.1z m-22.2 0h-11.1V846h11.1v11.1z m-22.2 0h-11.1V846H427v11.1z m-22.2 0h-11.1V846h11.1v11.1z m-22.2 0h-11.1V846h11.1v11.1z m-22.1 0h-11.1V846h11.1v11.1z m-22.2 0h-11.1V846h11.1v11.1z m-22.2 0H305V846h11.1v11.1z m-22.2 0h-11.1V846h11.1v11.1z m-22.2 0h-11.1V846h11.1v11.1z m-22.2 0h-11.1V846h11.1v11.1z m-22.2 0h-11.1V846h11.1v11.1z m-22.2 0H194V846h11.1v11.1z m-22.2 0h-11.1V846h11.1v11.1z" fill="#495460" p-id="1153"></path></svg>