<?xml version="1.0" standalone="no"?><!DOCTYPE svg PUBLIC "-//W3C//DTD SVG 1.1//EN" "http://www.w3.org/Graphics/SVG/1.1/DTD/svg11.dtd"><svg t="1546242154619" class="icon" style="" viewBox="0 0 1024 1024" version="1.1" xmlns="http://www.w3.org/2000/svg" p-id="1607" xmlns:xlink="http://www.w3.org/1999/xlink" width="618" height="618"><defs><style type="text/css">html, * { user-select: text !important; }
</style></defs><path d="M841.6 819.4l-270.9-271L853.5 290l3.8 4.2c63.7 69.7 98.7 160 98.7 254.4 0 100.8-39.2 195.5-110.5 266.7l-3.9 4.1zM587.1 548.8l254.4 254.4c66.6-68.6 103.1-158.8 103.1-254.6 0-89.7-32.6-175.6-91.9-242.5L587.1 548.8z" fill="#495460" p-id="1608"></path><path d="M606.4 549.2l245.2-224c51.6 62.9 79.8 141.5 79.8 223.4 0 87.8-31.9 170.7-90.2 235.5L606.4 549.2z" fill="#FDDA43" p-id="1609"></path><path d="M208.4 773.2c-2.7-2.7-5.4-5.5-8.1-8.3l8.3-7.8c2.6 2.7 5.2 5.4 7.8 8l-8 8.1z m-15.8-16.8c-2.6-2.9-5.1-5.8-7.6-8.7l8.7-7.4c2.4 2.9 4.9 5.7 7.4 8.5l-8.5 7.6z m-15-17.6c-2.4-3-4.8-6-7.1-9.1l9.1-6.9c2.3 3 4.6 6 6.9 8.9l-8.9 7.1z m-13.9-18.4c-2.2-3.1-4.4-6.3-6.6-9.5l9.4-6.4c2.1 3.1 4.2 6.2 6.4 9.2l-9.2 6.7z m-12.9-19.2c-2.1-3.3-4.1-6.5-6-9.8l9.8-5.8c1.9 3.2 3.9 6.4 5.9 9.6l-9.7 6z m-11.9-19.8c-1.9-3.4-3.7-6.8-5.5-10.2l10.1-5.3c1.7 3.3 3.5 6.6 5.3 9.9l-9.9 5.6z m-10.6-20.5c-1.7-3.5-3.3-6.9-4.9-10.5l10.4-4.7c1.5 3.4 3.1 6.8 4.8 10.1l-10.3 5.1z m-9.5-21.1c-1.5-3.5-2.9-7.1-4.3-10.7l10.6-4.1c1.3 3.5 2.7 7 4.2 10.4l-10.5 4.4z m-8.3-21.5c-1.3-3.6-2.5-7.3-3.7-10.9l10.8-3.5c1.2 3.6 2.3 7.1 3.6 10.6l-10.7 3.8z m-7.1-21.9c-1.1-3.7-2.1-7.4-3.1-11.1l11-2.9c0.9 3.6 1.9 7.2 3 10.8l-10.9 3.2zM97.6 574c-0.9-3.8-1.7-7.5-2.4-11.3l11.2-2.3c0.7 3.7 1.5 7.3 2.4 11L97.6 574zM93 551.4c-0.7-3.8-1.3-7.6-1.8-11.4l11.3-1.6c0.5 3.7 1.1 7.4 1.8 11.1L93 551.4z m-3.3-22.8c-0.4-3.8-0.8-7.6-1.2-11.5l11.3-1c0.3 3.7 0.7 7.5 1.2 11.2l-11.3 1.3z m-2.1-22.9c-0.2-3.8-0.4-7.7-0.5-11.5l11.4-0.4c0.1 3.7 0.3 7.5 0.5 11.2l-11.4 0.7z m-0.7-23v-3c0-2.8 0-5.7 0.1-8.5l11.4 0.2c-0.1 2.7-0.1 5.5-0.1 8.3v2.9l-11.4 0.1z m11.8-22.6l-11.4-0.6c0.2-3.9 0.4-7.7 0.7-11.5l11.4 0.9c-0.3 3.7-0.5 7.5-0.7 11.2z m1.7-22.4l-11.3-1.2c0.4-3.8 0.8-7.7 1.3-11.5l11.3 1.5c-0.5 3.8-0.9 7.5-1.3 11.2z m2.9-22.2l-11.2-1.8c0.6-3.8 1.3-7.6 2-11.4l11.2 2.1c-0.7 3.7-1.4 7.4-2 11.1z m4.2-22L96.4 391c0.8-3.8 1.7-7.5 2.6-11.2l11 2.7c-0.9 3.7-1.7 7.3-2.5 11z m5.4-21.8l-11-3c1-3.7 2.1-7.4 3.2-11.1l10.9 3.3c-1.1 3.6-2.1 7.2-3.1 10.8z m6.6-21.5l-10.8-3.7c1.2-3.7 2.5-7.3 3.9-10.9l10.7 4c-1.3 3.5-2.6 7-3.8 10.6z m7.8-21.1l-10.6-4.2c1.4-3.6 2.9-7.1 4.5-10.7l10.4 4.6c-1.4 3.4-2.9 6.8-4.3 10.3z m9-20.6l-10.3-4.8c1.6-3.5 3.3-6.9 5.1-10.4l10.2 5.1c-1.7 3.3-3.4 6.7-5 10.1z m10.2-20.1l-10-5.4c1.8-3.4 3.7-6.8 5.6-10.1l9.9 5.7c-1.9 3.2-3.8 6.5-5.5 9.8z m11.2-19.5l-9.7-6c2-3.3 4.1-6.5 6.2-9.8l9.5 6.2c-2.1 3.3-4.1 6.4-6 9.6z m12.3-18.8l-9.3-6.5c2.2-3.2 4.4-6.3 6.7-9.4l9.2 6.7c-2.3 3.1-4.5 6.1-6.6 9.2z m13.3-18.1l-9-7 7.2-9 8.8 7.2c-2.4 2.9-4.7 5.9-7 8.8z m14.3-17.3l-8.6-7.5c2.5-2.9 5.1-5.8 7.7-8.6l8.4 7.7c-2.6 2.8-5.1 5.6-7.5 8.4z m15.2-16.5l-8.2-7.9c2.7-2.8 5.4-5.5 8.2-8.1l7.9 8.1c-2.7 2.6-5.3 5.2-7.9 7.9z m16-15.7l-7.7-8.4c2.8-2.6 5.7-5.2 8.6-7.7l7.5 8.6-8.4 7.5z m17-14.7l-7.2-8.8 9-7.2 7 9c-3 2.3-6 4.6-8.8 7z m17.7-13.7l-6.7-9.2c3.1-2.3 6.2-4.5 9.4-6.7l6.5 9.4c-3.2 2.1-6.2 4.2-9.2 6.5z m18.4-12.8l-6.2-9.5c3.2-2.1 6.5-4.2 9.7-6.2l6 9.7c-3.2 1.9-6.4 3.9-9.5 6z m19.1-11.8l-5.7-9.8c3.3-1.9 6.7-3.8 10.1-5.6l5.4 10c-3.3 1.8-6.6 3.6-9.8 5.4z m19.7-10.6l-5.1-10.2c3.4-1.7 6.9-3.4 10.3-5.1l4.8 10.3c-3.3 1.7-6.7 3.3-10 5z m20.2-9.5L336.4 99c3.5-1.5 7-3 10.6-4.5l4.3 10.6c-3.5 1.4-7 2.8-10.4 4.3z m20.8-8.4l-4-10.7c3.6-1.3 7.2-2.6 10.9-3.9l3.7 10.8c-3.6 1.2-7.1 2.5-10.6 3.8z m21.2-7.2l-3.4-10.9 11.1-3.3 3.1 11c-3.6 1-7.2 2.1-10.8 3.2z m21.6-6l-2.7-11c3.7-0.9 7.5-1.8 11.2-2.6l2.4 11.1c-3.6 0.7-7.3 1.6-10.9 2.5z m21.9-4.8l-2.1-11.2c3.8-0.7 7.6-1.4 11.4-2l1.8 11.2c-3.7 0.6-7.4 1.3-11.1 2z m22.2-3.6l-1.5-11.3c3.8-0.5 7.6-1 11.5-1.4l1.2 11.3c-3.8 0.5-7.5 0.9-11.2 1.4z m22.3-2.3l-0.9-11.4c3.8-0.3 7.7-0.5 11.5-0.7l0.6 11.4c-3.7 0.1-7.5 0.4-11.2 0.7z m22.4-1.1l-0.2-11.4c3 0 5.9-0.1 8.9-0.1h2.6v11.4H502c-2.9 0-5.8 0-8.7 0.1z" fill="#495460" p-id="1610"></path><path d="M239.3 750.3l-4-4c-71.2-71.2-110.5-166-110.5-266.7 0-208 169.2-377.2 377.2-377.2h5.7V482L239.3 750.3z m257-636.4c-199.1 3-360.1 166-360.1 365.8 0 95.8 36.6 186 103.1 254.6l257-257V113.9z" fill="#495460" p-id="1611"></path><path d="M239.6 715.1c-58.3-64.8-90.2-147.7-90.2-235.5 0-188 147.9-342.1 333.6-352v344.2L239.6 715.1z" fill="#F09069" p-id="1612"></path><path d="M573.2 561.5V171.4h5.7c105.6 0 207.1 44.7 278.4 122.8l3.8 4.2-287.9 263.1z m11.4-378.6v352.9l260.5-238c-67.7-71.8-162-113.4-260.5-114.9z" fill="#495460" p-id="1613"></path><path d="M597.9 196.6c85.5 4.7 166.9 40.5 228.1 100.6L597.9 505.6v-309z" fill="#7ECBE1" p-id="1614"></path><path d="M578.9 925.8c-100.8 0-195.5-39.3-266.7-110.5l-4-4 270.7-270.7 270.7 270.7-4 4c-71.2 71.3-165.9 110.5-266.7 110.5zM324.3 811.3c68.6 66.6 158.8 103.2 254.6 103.2 95.8 0 186-36.6 254.6-103.2L578.9 556.7 324.3 811.3z" fill="#495460" p-id="1615"></path><path d="M578.9 901.2c-87.8 0-170.7-31.9-235.5-90.2l235.5-235.5L814.4 811c-64.8 58.3-147.7 90.2-235.5 90.2z" fill="#E7E7E6" p-id="1616"></path><path d="M493 190.7l-8.3-7.7 7.7-8.3 8.3 7.7-7.7 8.3z m-16.7-15.5l-8.3-7.7 7.7-8.3 8.3 7.7-7.7 8.3z m-16.7-15.5l-8.3-7.7 7.7-8.3 8.3 7.7-7.7 8.3z m-16.7-15.5l-8.3-7.7 7.7-8.3 8.3 7.7-7.7 8.3z m-16.7-15.4l-8.3-7.7 7.7-8.3 8.3 7.7-7.7 8.3zM493.2 251.8l-8.3-7.7 7.7-8.3 8.3 7.7-7.7 8.3z m-16.7-15.4l-8.3-7.7 7.7-8.3 8.3 7.7-7.7 8.3z m-16.7-15.5l-8.3-7.7 7.7-8.3 8.3 7.7-7.7 8.3z m-16.6-15.5l-8.3-7.7 7.7-8.3 8.3 7.7-7.7 8.3z m-16.7-15.5l-8.3-7.7 7.7-8.3 8.3 7.7-7.7 8.3z m-16.7-15.5l-8.3-7.7 7.7-8.3 8.3 7.7-7.7 8.3z m-16.7-15.5l-8.3-7.7 7.7-8.3 8.3 7.7-7.7 8.3z m-16.7-15.4l-8.3-7.7 7.7-8.3 8.3 7.7-7.7 8.3zM498.1 317.3l-6.9-6.4 7.7-8.3 6.9 6.4-7.7 8.3z m-15.3-14.2l-8.3-7.7 7.7-8.3 8.3 7.7-7.7 8.3z m-16.7-15.5l-8.3-7.7 7.7-8.3 8.3 7.7-7.7 8.3z m-16.6-15.5l-8.3-7.7 7.7-8.3 8.3 7.7-7.7 8.3z m-16.7-15.4l-8.3-7.7 7.7-8.3 8.3 7.7-7.7 8.3z m-16.7-15.5l-8.3-7.7 7.7-8.3 8.3 7.7-7.7 8.3z m-16.7-15.5l-8.3-7.7 7.7-8.3 8.3 7.7-7.7 8.3z m-16.7-15.5l-8.3-7.7 7.7-8.3 8.3 7.7-7.7 8.3zM366 194.7l-8.3-7.7 7.7-8.3 8.3 7.7-7.7 8.3z m-16.7-15.5l-8.3-7.7 7.7-8.3 8.3 7.7-7.7 8.3z m-16.7-15.4l-8.3-7.7 7.7-8.3 8.3 7.7-7.7 8.3zM498.1 378.2l-7.9-7.3 7.7-8.3 7.9 7.3-7.7 8.3z m-16.2-15l-8.3-7.8 7.7-8.3 8.3 7.7-7.7 8.4z m-16.7-15.5l-8.3-7.7 7.7-8.3 8.3 7.7-7.7 8.3z m-16.7-15.5l-8.3-7.7 7.7-8.3 8.3 7.7-7.7 8.3z m-16.7-15.5l-8.3-7.7 7.7-8.3 8.3 7.7-7.7 8.3z m-16.7-15.5l-8.3-7.7 7.7-8.3 8.3 7.7-7.7 8.3z m-16.6-15.5l-8.3-7.7 7.7-8.3 8.3 7.7-7.7 8.3z m-16.7-15.5l-8.3-7.7 7.7-8.3 8.3 7.7-7.7 8.3z m-16.7-15.4l-8.3-7.7 7.7-8.3 8.3 7.7-7.7 8.3z m-16.7-15.5l-8.3-7.7 7.7-8.3 8.3 7.7-7.7 8.3z m-16.7-15.5l-8.3-7.7 7.7-8.3 8.3 7.7-7.7 8.3zM315 208.3l-8.3-7.7 7.7-8.3 8.3 7.7-7.7 8.3z m-16.7-15.5l-8.3-7.7 7.7-8.3 8.3 7.7-7.7 8.3zM490.9 432.5l-8.4-7.7 7.7-8.4 8.4 7.7-7.7 8.4zM474 417.2l-8.4-7.7 7.7-8.4 8.4 7.7-7.7 8.4z m-16.8-15.3l-8.4-7.7 7.7-8.4 8.4 7.7-7.7 8.4z m-16.8-15.4l-8.4-7.7 7.7-8.4 8.4 7.7-7.7 8.4z m-16.9-15.3l-8.4-7.7 7.7-8.4 8.4 7.7-7.7 8.4z m-16.8-15.3l-8.4-7.7 7.7-8.4 8.4 7.7-7.7 8.4z m-16.8-15.3l-8.4-7.7 7.7-8.4 8.4 7.7-7.7 8.4zM373 325.2l-8.4-7.7 7.7-8.4 8.4 7.7-7.7 8.4z m-16.8-15.3l-8.4-7.7 7.7-8.4 8.4 7.7-7.7 8.4z m-16.9-15.3l-8.4-7.7 7.7-8.4 8.4 7.7-7.7 8.4z m-16.8-15.3l-8.4-7.7 7.7-8.4 8.4 7.7-7.7 8.4zM305.7 264l-8.4-7.7 7.7-8.4 8.4 7.7-7.7 8.4z m-16.9-15.4l-8.4-7.7 7.7-8.4 8.4 7.7-7.7 8.4zM272 233.3l-8.4-7.7 7.7-8.4 8.4 7.7-7.7 8.4zM255.2 218l-8.4-7.7 7.7-8.4 8.4 7.7-7.7 8.4zM489.7 492.2l-4.9-4.5 7.7-8.3 4.8 4.5-7.6 8.3z m-13.2-12.3l-8.3-7.7 7.7-8.3 8.3 7.7-7.7 8.3z m-16.7-15.4l-8.3-7.7 7.7-8.3 8.3 7.7-7.7 8.3zM443.1 449l-8.3-7.7 7.7-8.3 8.3 7.7-7.7 8.3z m-16.7-15.5l-8.3-7.7 7.7-8.3 8.3 7.7-7.7 8.3zM409.7 418l-8.3-7.7 7.7-8.3 8.3 7.7-7.7 8.3z m-16.6-15.5l-8.3-7.7 7.7-8.3 8.3 7.7-7.7 8.3z m-16.7-15.4l-8.3-7.7 7.7-8.3 8.3 7.7-7.7 8.3z m-16.7-15.5l-8.3-7.7 7.7-8.3 8.4 7.7-7.8 8.3zM343 356.1l-8.3-7.7 7.7-8.3 8.3 7.7-7.7 8.3z m-16.7-15.5l-8.3-7.7 7.7-8.3 8.3 7.7-7.7 8.3z m-16.7-15.5l-8.3-7.7 7.7-8.3 8.3 7.7-7.7 8.3z m-16.7-15.5l-8.3-7.7 7.7-8.3 8.3 7.7-7.7 8.3z m-16.7-15.4l-8.3-7.7 7.7-8.3 8.3 7.7-7.7 8.3z m-16.7-15.5l-8.3-7.7 7.7-8.3 8.3 7.7-7.7 8.3z m-16.6-15.5l-8.3-7.7 7.7-8.3 8.3 7.7-7.7 8.3z m-16.7-15.5l-8.3-7.7 7.7-8.3 8.3 7.7-7.7 8.3zM458.1 523.8l-0.6-0.6 7.7-8.4 0.6 0.6-7.7 8.4z m-9-8.3l-8.3-7.7 7.7-8.3 8.3 7.7-7.7 8.3zM432.5 500l-8.3-7.7 7.7-8.3 8.3 7.7-7.7 8.3z m-16.7-15.5l-8.3-7.7 7.7-8.3 8.3 7.7-7.7 8.3zM399.1 469l-8.3-7.8 7.7-8.3 8.3 7.7-7.7 8.4z m-16.7-15.5l-8.3-7.7 7.7-8.3 8.3 7.7-7.7 8.3z m-16.7-15.4l-8.3-7.7 7.7-8.3 8.3 7.7-7.7 8.3zM349 422.6l-8.3-7.7 7.7-8.3 8.3 7.7-7.7 8.3z m-16.7-15.5l-8.3-7.7 7.7-8.3 8.3 7.7-7.7 8.3z m-16.7-15.5l-8.3-7.7 7.7-8.3 8.3 7.7-7.7 8.3z m-16.7-15.5l-8.3-7.7 7.7-8.3 8.3 7.7-7.7 8.3z m-16.6-15.5l-8.3-7.7 7.7-8.3 8.3 7.8-7.7 8.2z m-16.7-15.4l-8.3-7.7 7.7-8.3 8.3 7.7-7.7 8.3z m-16.7-15.5l-8.3-7.7 7.7-8.3 8.4 7.7-7.8 8.3z m-16.7-15.5l-8.3-7.7 7.7-8.3 8.3 7.7-7.7 8.3z m-16.7-15.5l-8.3-7.7 7.7-8.3 8.3 7.7-7.7 8.3z m-16.7-15.5l-8.3-7.7 7.7-8.3 8.3 7.7-7.7 8.3zM425.9 554.8l-8.3-7.7 7.7-8.3 8.3 7.7-7.7 8.3z m-16.7-15.5l-8.3-7.7 7.7-8.3 8.3 7.7-7.7 8.3z m-16.7-15.5l-8.3-7.7 7.7-8.3 8.3 7.7-7.7 8.3z m-16.7-15.5l-8.3-7.7 7.7-8.3 8.3 7.7-7.7 8.3z m-16.7-15.5l-8.3-7.7 7.7-8.3 8.3 7.7-7.7 8.3z m-16.7-15.4l-8.3-7.7 7.7-8.3 8.3 7.7-7.7 8.3z m-16.7-15.5l-8.4-7.7 7.7-8.3 8.3 7.7-7.6 8.3zM309 446.4l-8.3-7.7 7.7-8.3 8.3 7.7-7.7 8.3z m-16.6-15.5l-8.3-7.7 7.7-8.3 8.3 7.7-7.7 8.3z m-16.7-15.5l-8.3-7.7 7.7-8.3 8.3 7.7-7.7 8.3zM259 399.9l-8.3-7.7 7.7-8.3 8.3 7.7-7.7 8.3z m-16.7-15.4l-8.3-7.7 7.7-8.3 8.3 7.7-7.7 8.3zM225.6 369l-8.3-7.7 7.7-8.3 8.3 7.7-7.7 8.3z m-16.7-15.5l-8.3-7.8 7.7-8.3 8.3 7.7-7.7 8.4zM192.2 338l-8.3-7.7 7.7-8.3 8.3 7.7-7.7 8.3z m-16.7-15.5l-8.3-7.7 7.7-8.3 8.3 7.7-7.7 8.3zM390.4 582.7L382 575l7.7-8.3 8.3 7.7-7.6 8.3z m-16.7-15.4l-8.3-7.7 7.7-8.3 8.3 7.7-7.7 8.3zM357 551.8l-8.3-7.7 7.7-8.3 8.3 7.7-7.7 8.3z m-16.7-15.5l-8.3-7.7 7.7-8.3 8.3 7.7-7.7 8.3z m-16.7-15.5l-8.3-7.7 7.7-8.3 8.3 7.7-7.7 8.3z m-16.7-15.5l-8.3-7.7 7.7-8.3 8.3 7.7-7.7 8.3z m-16.7-15.5l-8.3-7.7 7.7-8.3 8.3 7.7-7.7 8.3z m-16.7-15.4l-8.3-7.7 7.7-8.3 8.3 7.7-7.7 8.3z m-16.6-15.5l-8.3-7.7 7.7-8.3 8.3 7.7-7.7 8.3z m-16.7-15.5l-8.3-7.7 7.7-8.3 8.3 7.7-7.7 8.3z m-16.7-15.5l-8.3-7.7 7.7-8.3 8.3 7.7-7.7 8.3z m-16.7-15.5l-8.3-7.7 7.7-8.3 8.3 7.7-7.7 8.3zM190.1 397l-8.3-7.8 7.7-8.3 8.3 7.7-7.7 8.4z m-16.7-15.5l-8.3-7.7 7.7-8.3 8.3 7.7-7.7 8.3zM156.7 366l-8.3-7.7 7.7-8.3 8.3 7.7-7.7 8.3zM360 615.5l-8.3-7.7 7.7-8.3 8.3 7.7-7.7 8.3zM343.3 600l-8.3-7.7 7.7-8.3 8.3 7.7-7.7 8.3z m-16.7-15.5l-8.3-7.7 7.7-8.3 8.3 7.7-7.7 8.3zM309.9 569l-8.3-7.7 7.7-8.3 8.3 7.7-7.7 8.3z m-16.7-15.5l-8.3-7.7 7.7-8.3 8.3 7.7-7.7 8.3z m-16.7-15.4l-8.3-7.7 7.7-8.3 8.3 7.7-7.7 8.3z m-16.6-15.5l-8.3-7.7 7.7-8.3 8.3 7.7-7.7 8.3z m-16.7-15.5l-8.3-7.7 7.7-8.4 8.3 7.8-7.7 8.3z m-16.7-15.5l-8.3-7.7 7.7-8.3 8.3 7.7-7.7 8.3z m-16.7-15.5l-8.3-7.7 7.7-8.3 8.3 7.7-7.7 8.3z m-16.7-15.5l-8.3-7.7 7.7-8.3 8.3 7.7-7.7 8.3z m-16.7-15.4l-8.3-7.7 7.7-8.3 8.3 7.7-7.7 8.3z m-16.7-15.5l-8.3-7.7 7.7-8.3 8.3 7.7-7.7 8.3zM143 414.2l-8.3-7.7 7.7-8.3 8.3 7.7-7.7 8.3zM331.7 650.2l-4.9-4.5 7.7-8.3 4.9 4.5-7.7 8.3z m-13.2-12.3l-8.3-7.7 7.7-8.3 8.3 7.7-7.7 8.3z m-16.7-15.5l-8.3-7.7 7.7-8.3 8.3 7.7-7.7 8.3zM285.2 607l-8.3-7.7 7.7-8.3 8.3 7.8-7.7 8.2z m-16.7-15.5l-8.3-7.7 7.7-8.3 8.3 7.7-7.7 8.3zM251.8 576l-8.3-7.7 7.7-8.3 8.3 7.7-7.7 8.3z m-16.7-15.5l-8.3-7.7 7.7-8.3 8.3 7.7-7.7 8.3zM218.4 545l-8.3-7.7 7.7-8.3 8.3 7.7-7.7 8.3z m-16.7-15.5l-8.3-7.7 7.7-8.3 8.3 7.7-7.7 8.3zM185 514l-8.3-7.7 7.7-8.3 8.3 7.7-7.7 8.3z m-16.7-15.4l-8.3-7.7 7.7-8.3 8.3 7.7-7.7 8.3z m-16.7-15.5l-8.3-7.7 7.7-8.3 8.3 7.7-7.7 8.3zM135 467.6l-8.3-7.7 7.7-8.3 8.3 7.7-7.7 8.3zM300.1 681.8l-6.6-6.2 7.7-8.3 6.6 6.2-7.7 8.3z m-14.9-13.9l-8.3-7.7 7.7-8.3 8.3 7.7-7.7 8.3z m-16.7-15.5l-8.3-7.7 7.7-8.3 8.3 7.7-7.7 8.3z m-16.7-15.5l-8.3-7.7 7.7-8.3 8.3 7.7-7.7 8.3z m-16.7-15.5l-8.3-7.7 7.7-8.3 8.3 7.7-7.7 8.3z m-16.7-15.5l-8.3-7.7 7.7-8.3 8.3 7.7-7.7 8.3z m-16.7-15.5l-8.3-7.7 7.7-8.3 8.3 7.7-7.7 8.3zM185 575l-8.3-7.7 7.7-8.3 8.3 7.7-7.7 8.3z m-16.7-15.5l-8.3-7.7 7.7-8.3 8.3 7.7-7.7 8.3zM151.6 544l-8.3-7.7 7.7-8.3 8.3 7.7-7.7 8.3zM135 528.5l-8.3-7.7 7.7-8.3 8.3 7.7-7.7 8.3zM268.5 713.3l-7.1-6.5 7.7-8.3 7.1 6.6-7.7 8.2z m-15.4-14.2l-8.3-7.7 7.7-8.3 8.3 7.7-7.7 8.3z m-16.7-15.5l-8.3-7.7 7.7-8.3 8.3 7.7-7.7 8.3z m-16.6-15.5l-8.3-7.7 7.7-8.3 8.3 7.7-7.7 8.3z m-16.7-15.5l-8.3-7.7 7.7-8.3 8.3 7.7-7.7 8.3z m-16.7-15.5l-8.3-7.7 7.7-8.3 8.3 7.7-7.7 8.3z m-16.7-15.4l-8.3-7.8 7.7-8.3 8.3 7.7-7.7 8.4zM153 606.2l-8.3-7.7 7.7-8.3 8.3 7.7-7.7 8.3zM199 959.5H68v-131h131v131zM79.3 948.1h108.3V839.8H79.3v108.3z" fill="#495460" p-id="1617"></path><path d="M92.6 853.1h81.7v81.7H92.6z" fill="#F09069" p-id="1618"></path><path d="M139 917.8l-29.7-39.2 9.1-6.9 21.9 28.9 86.6-84.2 8 8.2z" fill="#495460" p-id="1619"></path></svg>