<?xml version="1.0" standalone="no"?><!DOCTYPE svg PUBLIC "-//W3C//DTD SVG 1.1//EN" "http://www.w3.org/Graphics/SVG/1.1/DTD/svg11.dtd"><svg t="1546242163857" class="icon" style="" viewBox="0 0 1024 1024" version="1.1" xmlns="http://www.w3.org/2000/svg" p-id="1748" xmlns:xlink="http://www.w3.org/1999/xlink" width="618" height="618"><defs><style type="text/css">html, * { user-select: text !important; }
</style></defs><path d="M126 959.5l-57.8-57.8 3.9-3.9 761.6-761.7-45.6-43.6 154.9-6 0.9 154.9-51-48.8L126 959.5z m-42-57.8l42 42L892.7 177l39.9 38.2-0.6-117.1-117 4.5 34.8 33.3-4 4L84 901.7z" fill="#495460" p-id="1749"></path><path d="M102.3 901.7l766-766-22.2-21.3 72.9-2.8 0.4 73-26.9-25.7L126 925.3z" fill="#F09069" p-id="1750"></path><path d="M263.4 870.1v-11.2H967v11.2zM702.8 716.5h-9.4c-10.4 0-18.8-8.5-18.8-18.8v-23c0-10.4 8.5-18.8 18.8-18.8h9.4c10.4 0 18.8 8.4 18.8 18.8h-11.1c0-4.2-3.4-7.7-7.7-7.7h-9.4c-4.2 0-7.7 3.4-7.7 7.7v23c0 4.2 3.4 7.7 7.7 7.7h9.4c4.2 0 7.7-3.4 7.7-7.7v-0.7h11.1v0.7c0 10.3-8.4 18.8-18.8 18.8zM699.3 196.2h-11.1v-59.3h32.2c9.1 0 16.6 7.4 16.6 16.6 0 9.1-7.4 16.6-16.6 16.6h-21v26.1z m0-37.3h21c3 0 5.4-2.4 5.4-5.4 0-3-2.4-5.4-5.4-5.4h-21v10.8z" fill="#495460" p-id="1751"></path><path d="M740.7 195.2l-37.2-34.8-7.6 8.1 28.5 26.7zM404.1 401.3c-29.4 0-57.8-8.7-82.1-25.2l-4.6-3.1 47.1-69.5 4.6 3.1c10.3 7 22.4 10.7 35 10.7 34.4 0 62.3-28 62.3-62.4s-28-62.4-62.3-62.4h-5.6v-84h5.6c80.7 0 146.3 65.7 146.3 146.3 0 80.9-65.6 146.5-146.3 146.5zM333 370c21.3 13.2 45.8 20.2 71.1 20.2 74.5 0 135.2-60.6 135.2-135.2 0-72.7-57.6-132.2-129.6-135.1v61.8c37.9 2.9 67.9 34.6 67.9 73.3 0 40.5-33 73.5-73.5 73.5-12.9 0-25.4-3.3-36.5-9.7L333 370z" fill="#495460" p-id="1752"></path><path d="M404.1 377.2c-18.3 0-36.1-4-52.4-11.7l20.4-30c10.1 4 20.9 6.1 32 6.1 47.7 0 86.5-38.8 86.5-86.5 0-41.3-29.1-76-67.9-84.5v-36.3c58.6 9 103.6 59.7 103.6 120.8 0 67.3-54.8 122.1-122.2 122.1z" fill="#F09069" p-id="1753"></path><path d="M326.7 379.3l-4.6-3.1c-40.2-27.3-64.3-72.6-64.3-121.2 0-80.7 65.7-146.3 146.3-146.3h5.6v84h-5.6c-34.4 0-62.4 28-62.4 62.4 0 20.7 10.2 40 27.4 51.6l4.6 3.1-47 69.5z m71.9-259.4c-72 3-129.6 62.4-129.6 135.1 0 43 20.4 83.2 54.8 108.7l34.7-51.2c-17.5-13.9-27.8-35-27.8-57.6 0-38.6 30-70.4 67.9-73.3v-61.7z" fill="#495460" p-id="1754"></path><path d="M321 344.6c-24.7-23-39.1-55.3-39.1-89.6 0-61.1 45-111.8 103.6-120.8v36.3c-38.8 8.5-67.9 43.2-67.9 84.5 0 22.4 8.6 43.6 23.7 59.5L321 344.6z" fill="#FDDA43" p-id="1755"></path><path d="M126.7 803.1c-24.8 0-41.1-1-45.5-1.3l-24.1-2v-82.1l30.6 2.5c2.6 0.2 16.7 1.1 39.2 1.1 29.2 0 76-1.6 132.4-9.1l16.3-2.2-91.4 91.4-2.1 0.1c-19 1.1-37.6 1.6-55.4 1.6z m-45-12.4h0.2c4.3 0.3 20.3 1.3 44.7 1.3 17 0 34.6-0.4 52.6-1.4l65.2-65.2c-49.8 5.9-91 7.2-117.7 7.2-22.3 0-36.2-0.9-40-1.1L68.1 730v59.7l13.6 1z" fill="#495460" p-id="1756"></path><path d="M126.8 745.6c-21.6 0-35.7-0.8-40.4-1.2l-5.1-0.4v33.6l1.6 0.1c4.2 0.3 19.8 1.3 43.8 1.3 15.2 0 30.9-0.4 46.9-1.1l35.9-35.9c-34.1 2.8-62.5 3.6-82.7 3.6z" fill="#FDDA43" p-id="1757"></path><path d="M277.1 792.6l104.2-104.2 1.5-0.4c82.4-21.8 158-53.6 224.7-94.7 88-54.2 160.9-125 216.6-210.5l-55.3-32.7L918.2 309l36.2 150.7-59.8-35.3-1.1 1.6C752.3 643.8 538.6 734.4 384.2 772c-29.5 7.2-59.9 13.3-90.2 18l-16.9 2.6z m110-94.2l-77.8 77.8c24.3-4.2 48.5-9.2 72.2-15C534 724 744.9 634.7 884.1 420l6.9-10.6 46.4 27.4L910 322.9 797.1 354l42.7 25.2-5.5 8.5c-56.7 87.4-131 159.8-220.9 215.1-67.3 41.4-143.4 73.6-226.3 95.6z" fill="#495460" p-id="1758"></path><path d="M393.9 710c82.8-22.3 158.9-54.6 226.3-96.1 91.6-56.4 167.3-130.1 225-219.2l12.9-19.9-27.9-16.5 70.4-19.4 17 71-30.7-18.1-13.6 21.1c-137 211.1-344.7 299-494.8 335.6-9.9 2.4-19.9 4.7-29.9 6.8l45.3-45.3z" fill="#FDDA43" p-id="1759"></path><path d="M155 64.5h11.1v621.6H155z" fill="#495460" p-id="1760"></path></svg>