<?xml version="1.0" standalone="no"?><!DOCTYPE svg PUBLIC "-//W3C//DTD SVG 1.1//EN" "http://www.w3.org/Graphics/SVG/1.1/DTD/svg11.dtd"><svg t="1546243100920" class="icon" style="" viewBox="0 0 1024 1024" version="1.1" xmlns="http://www.w3.org/2000/svg" p-id="7638" xmlns:xlink="http://www.w3.org/1999/xlink" width="618" height="618"><defs><style type="text/css">html, * { user-select: text !important; }
</style></defs><path d="M600.2 279c-6.7-12.1-21.5-17.2-34.3-11.8l-78.8 32.4c-13.6 5.8-28.2 8.8-43 8.7l-106.7-0.1 15.7 54.8h-32.4l16.5 31.5L258 501.8l-5.8 7.8-5.8-7.8-79.2-107.3 16.5-31.5h-32.5l15.6-54.7c-45.5 5.3-80.8 44.1-80.8 90.9v231.3h54.4V921h214.1V630.5h0.5V379.7h94.7c19.3 0 38.2-5.1 54.9-14.7l85.5-49.4c12.8-7.4 17.3-23.7 10.1-36.6z" fill="#E7E7E6" p-id="7639"></path><path d="M252.2 295.7c-53.1 0-96.3-43.2-96.3-96.3 0-53.1 43.2-96.3 96.3-96.3 53.1 0 96.3 43.2 96.3 96.3 0.1 53.1-43.1 96.3-96.3 96.3z m0-182c-47.2 0-85.6 38.4-85.6 85.6 0 47.2 38.4 85.6 85.6 85.6 47.2 0 85.6-38.4 85.6-85.6 0.1-47.2-38.4-85.6-85.6-85.6z" fill="#495460" p-id="7640"></path><path d="M252.2 273c-40.6 0-73.7-33-73.7-73.7 0-40.6 33.1-73.7 73.7-73.7s73.7 33 73.7 73.7-33 73.7-73.7 73.7z" fill="#FDDA43" p-id="7641"></path><path d="M128.6 653.1H63.5v-254c0-63 51.2-114.2 114.2-114.2h139.7v10.7H177.7c-57.1 0-103.5 46.4-103.5 103.5v243.3h43.7v-182h10.7v192.7z" fill="#495460" p-id="7642"></path><path d="M377.2 647.8h-10.7V391h87c19.8 0 39.2-5.4 56.1-15.6l87.9-52.9c15.4-9.3 21.7-28.1 14.9-44.7-3.6-9-10.6-16-19.5-19.7-8.9-3.8-18.8-3.8-27.8-0.2l-71.2 28.9c-14.4 5.9-29.5 8.8-45.1 8.8h-172v-10.7h172c14.1 0 27.9-2.7 41-8L561 248c11.6-4.7 24.4-4.7 36 0.2 11.6 4.9 20.5 14 25.3 25.6 8.8 21.6 0.6 45.9-19.3 57.9l-87.9 52.9c-18.6 11.2-39.9 17.1-61.7 17.1h-76.3v246.1z" fill="#495460" p-id="7643"></path><path d="M453.5 401.7h-4.7V391h4.7c10 0 19.9-1.4 29.6-4.1 9.4-2.7 18.3-6.5 26.6-11.5l87.8-52.9c10.9-6.5 17.6-18.5 17.6-31.1 0-4.6-0.9-9.2-2.7-13.6-7.5-18.5-28.8-27.5-47.2-20l-71.2 29c-2.7 1.1-5.2 2-7.7 2.8-12 4-24.5 6-37.3 6v-10.7c11.6 0 23.1-1.8 34-5.5 2.3-0.7 4.5-1.6 7-2.5l71.2-29c24-9.7 51.4 1.9 61.2 25.8 2.3 5.7 3.5 11.6 3.5 17.6 0 16.4-8.7 31.8-22.8 40.3l-87.8 52.9c-9.1 5.5-18.9 9.7-29.2 12.6-10.7 3.1-21.7 4.6-32.6 4.6z" fill="#495460" p-id="7644"></path><path d="M251.9 290.3h-41l29.8 49.1h22.4l29.8-49.1zM273.5 386.6l-21.3 90.6-21.9-93.3 10.8-44.4h22.3z" fill="#7ECBE1" p-id="7645"></path><path d="M266.4 344.8h-28.3l-36.4-59.9h101.1l-36.4 59.9z m-22.3-10.7h16.3l23.3-38.4h-63l23.4 38.4z" fill="#495460" p-id="7646"></path><path d="M271.2 397.6l-12.1-52.8h-13.8L233 395.9l-10.4-2.5 14.3-59.3h30.8l13.9 61.1zM242.2 705.1h10.7V921h-10.7z" fill="#495460" p-id="7647"></path><path d="M128.6 921h-10.7V653.1H63.5v-254c0-63 51.2-114.2 114.2-114.2h30.4c-31-16-52.2-48.4-52.2-85.6 0-53.1 43.2-96.3 96.3-96.3 53.1 0 96.3 43.2 96.3 96.3 0 53.1-43.2 96.3-96.3 96.3v-10.7c47.2 0 85.6-38.4 85.6-85.6 0-47.2-38.4-85.6-85.6-85.6-47.2 0-85.6 38.4-85.6 85.6 0 47.2 38.4 85.6 85.6 85.6v10.7h-74.5c-57.1 0-103.5 46.4-103.5 103.5v243.3h54.4V921zM366.5 647.8h10.7V921h-10.7z" fill="#495460" p-id="7648"></path><path d="M325.9 199.3c0 38.7-30.1 70.6-68.1 73.4h-11.3c-38-2.9-68-34.7-68-73.4 0-40.6 33-73.7 73.7-73.7s73.7 33.1 73.7 73.7z" fill="#FDDA43" p-id="7649"></path><path d="M252.2 477.2L207 284.9h-33.4l-22.3 78h32.5l-16.5 31.5 79.2 107.3 5.8 7.8 5.8-7.8-5.9-24.5z m-72.4-83.7l21.7-41.3h-36l16.2-56.6h16.8L241 476.4l-61.2-82.9z" fill="#495460" p-id="7650"></path><path d="M353.1 363l-22-76.9-33.7-1.3-45.2 192.4-5.8 24.6 5.8 7.8 5.8-7.8 79.2-107.3-16.6-31.5h32.5z m-28.5 30.5l-61.2 82.9 42.4-180.6 17.1 0.7 16 55.8h-36l21.7 41.2zM542.7 733c-38.3 0-69.5-31.2-69.5-69.5s31.2-69.5 69.5-69.5 69.5 31.2 69.5 69.5S581 733 542.7 733z m0-128.3c-32.4 0-58.8 26.3-58.8 58.7 0 32.4 26.4 58.8 58.8 58.8s58.8-26.3 58.8-58.8c-0.1-32.3-26.4-58.7-58.8-58.7z" fill="#495460" p-id="7651"></path><path d="M542.7 709c-25.1 0-45.5-20.4-45.5-45.5s20.4-45.5 45.5-45.5 45.5 20.4 45.5 45.5-20.4 45.5-45.5 45.5z" fill="#FDDA43" p-id="7652"></path><path d="M670.7 921H660V804.3c0-39.3-32-71.3-71.3-71.3h-98.5c-39.3 0-71.4 32-71.4 71.3V921h-10.7V804.3c0-45.2 36.8-82.1 82.1-82.1h98.5c45.2 0 82.1 36.8 82.1 82.1V921z" fill="#495460" p-id="7653"></path><path d="M432 921V804.3c0-32 26.1-58.1 58.1-58.1h98.5c32 0 58.1 26.1 58.1 58.1V921H432z" fill="#E7E7E6" p-id="7654"></path><path d="M446.4 847.4h10.7v73.5h-10.7zM621.6 847.4h10.7v73.5h-10.7zM832.5 733c-38.3 0-69.5-31.2-69.5-69.5s31.2-69.5 69.5-69.5 69.5 31.2 69.5 69.5-31.2 69.5-69.5 69.5z m0-128.3c-32.4 0-58.8 26.3-58.8 58.7 0 32.4 26.4 58.8 58.8 58.8s58.8-26.3 58.8-58.8c0-32.3-26.4-58.7-58.8-58.7z" fill="#495460" p-id="7655"></path><path d="M832.5 709c-25.1 0-45.5-20.4-45.5-45.5s20.4-45.5 45.5-45.5 45.5 20.4 45.5 45.5-20.4 45.5-45.5 45.5z" fill="#FDDA43" p-id="7656"></path><path d="M960.5 921h-10.7V804.3c0-39.3-32-71.3-71.4-71.3H780c-39.3 0-71.4 32-71.4 71.3V921h-10.7V804.3c0-45.2 36.8-82.1 82.1-82.1h98.5c45.3 0 82.1 36.8 82.1 82.1V921z" fill="#495460" p-id="7657"></path><path d="M721.8 921V804.3c0-32 26.1-58.1 58.1-58.1h98.5c32 0 58.1 26.1 58.1 58.1V921H721.8z" fill="#E7E7E6" p-id="7658"></path><path d="M736.2 847.4h10.7v73.5h-10.7zM911.4 847.4h10.7v73.5h-10.7z" fill="#495460" p-id="7659"></path><path d="M941.9 503.5H443.3l0.1-112.5h10.1c10 0 19.9-1.4 29.6-4.1 9.4-2.7 18.3-6.5 26.6-11.5l87.8-52.9c10.9-6.5 17.6-18.5 17.6-31.1 0-4.6-0.9-9.2-2.7-13.6-5.6-13.7-18.8-22.6-33.6-22.6-4.7 0-9.3 0.9-13.6 2.7l-71.2 29c-2.7 1.1-5.2 2-7.7 2.8-12 4-24.6 6-37.3 6h-5.4V138.4H942v365.1zM454 492.8h477.2V149.2h-477v135.7c9.8-0.5 19.4-2.3 28.7-5.3 2.3-0.7 4.5-1.6 7-2.5l71.2-29c5.7-2.3 11.6-3.4 17.7-3.4 19.2 0 36.3 11.5 43.5 29.3 2.3 5.7 3.5 11.6 3.5 17.6 0 16.4-8.7 31.8-22.8 40.3l-87.8 52.9c-9.1 5.5-18.9 9.7-29.2 12.6-10.4 2.9-21.1 4.4-31.8 4.5l-0.2 90.9z" fill="#495460" p-id="7660"></path><path d="M906.2 467.8H479.1l0.1-79.8 3.9-1.1c9.4-2.7 18.3-6.5 26.6-11.5l87.8-52.9c10.9-6.5 17.6-18.5 17.6-31.1 0-4.6-0.9-9.2-2.7-13.6-5.6-13.7-18.8-22.6-33.6-22.6-4.7 0-9.3 0.9-13.6 2.7l-71.2 29c-2.7 1.1-5.2 2-7.7 2.8l-7 2.2V174.2h427v293.6zM489.8 457h405.7V184.9H490v92l71.1-28.9c5.7-2.3 11.6-3.4 17.7-3.4 19.2 0 36.3 11.5 43.5 29.3 2.3 5.7 3.5 11.6 3.5 17.6 0 16.4-8.7 31.8-22.8 40.3l-87.8 52.9c-7.9 4.8-16.4 8.6-25.3 11.5l-0.1 60.8z" fill="#495460" p-id="7661"></path><path d="M502.3 444.5v-39.7c6.7-2.7 13.1-5.9 19.3-9.6l87.8-52.9c17.8-10.7 28.8-30.2 28.8-51 0-7.7-1.5-15.2-4.4-22.3-9.2-22.6-30.8-37.1-55.1-37.1-7.7 0-15.2 1.5-22.4 4.4l-53.9 21.9v-60.9H883v247.2H502.3z" fill="#7ECBE1" p-id="7662"></path><path d="M746.9 592.8h-10.7v-88.6h-84.1v88.6h-10.7v-99.4h105.5z" fill="#495460" p-id="7663"></path><path d="M664.6 516.7h59.1v76.2h-59.1z" fill="#7ECBE1" p-id="7664"></path><path d="M589.1 400.8l-6-8.9 124-84.1 35.5 40.7 84.3-57.3 6 8.9-92.1 62.6-35.5-40.7z" fill="#495460" p-id="7665"></path><path d="M835.2 321h-10.7v-22.2h-25.1v-10.7h35.8z" fill="#495460" p-id="7666"></path><path d="M674.4 289.4l-5.6-9.2 9.2-5.6 5.6 9.2-9.2 5.6z m18.3-11.1l-5.6-9.2 9.2-5.6 5.6 9.2-9.2 5.6z m18.3-11.2l-5.6-9.2 9.2-5.6 5.6 9.2-9.2 5.6z m18.4-11.1l-5.6-9.2 9.2-5.6 5.6 9.2-9.2 5.6z m18.3-11.1l-5.6-9.2 9.2-5.6 5.6 9.2-9.2 5.6z" fill="#495460" p-id="7667"></path><path d="M759.6 413.8l-5.6-9.2 9.2-5.5 5.6 9.2-9.2 5.5z m18.4-11.1l-5.6-9.2 9.2-5.6 5.6 9.2-9.2 5.6z m18.3-11.1l-5.6-9.2 9.2-5.5 5.6 9.2-9.2 5.5z m18.3-11.1l-5.6-9.2 9.2-5.5 5.6 9.2-9.2 5.5z m18.3-11.1l-5.6-9.2 9.2-5.6 5.6 9.2-9.2 5.6z" fill="#495460" p-id="7668"></path><path d="M662.7 373.3v39.1h39.5V346z" fill="#F09069" p-id="7669"></path><path d="M643.5 381.9L609.9 403v9.4h33.6z" fill="#F09069" p-id="7670"></path></svg>