<?xml version="1.0" standalone="no"?><!DOCTYPE svg PUBLIC "-//W3C//DTD SVG 1.1//EN" "http://www.w3.org/Graphics/SVG/1.1/DTD/svg11.dtd"><svg t="1546249185912" class="icon" style="" viewBox="0 0 1024 1024" version="1.1" xmlns="http://www.w3.org/2000/svg" p-id="4205" xmlns:xlink="http://www.w3.org/1999/xlink" width="400" height="400"><defs><style type="text/css">html, * { user-select: text !important; }
</style></defs><path d="M921.6 1006.933333H102.4C54.613333 1006.933333 17.066667 969.386667 17.066667 921.6V102.4C17.066667 54.613333 54.613333 17.066667 102.4 17.066667h819.2c47.786667 0 85.333333 37.546667 85.333333 85.333333v819.2c0 47.786667-37.546667 85.333333-85.333333 85.333333zM102.4 51.2c-27.306667 0-51.2 23.893333-51.2 51.2v819.2c0 27.306667 23.893333 51.2 51.2 51.2h819.2c27.306667 0 51.2-23.893333 51.2-51.2V102.4c0-27.306667-23.893333-51.2-51.2-51.2H102.4z" fill="#1296db" p-id="4206"></path><path d="M989.866667 187.733333H34.133333C23.893333 187.733333 17.066667 180.906667 17.066667 170.666667s6.826667-17.066667 17.066666-17.066667h955.733334c10.24 0 17.066667 6.826667 17.066666 17.066667s-6.826667 17.066667-17.066666 17.066666zM477.866667 904.533333H238.933333c-10.24 0-17.066667-6.826667-17.066666-17.066666v-68.266667c0-10.24 6.826667-17.066667 17.066666-17.066667h238.933334c10.24 0 17.066667 6.826667 17.066666 17.066667v68.266667c0 10.24-6.826667 17.066667-17.066666 17.066666z m-221.866667-34.133333h204.8v-34.133333h-204.8v34.133333zM785.066667 904.533333h-238.933334c-10.24 0-17.066667-6.826667-17.066666-17.066666v-68.266667c0-10.24 6.826667-17.066667 17.066666-17.066667h238.933334c10.24 0 17.066667 6.826667 17.066666 17.066667v68.266667c0 10.24-6.826667 17.066667-17.066666 17.066666z m-221.866667-34.133333h204.8v-34.133333h-204.8v34.133333zM494.933333 563.2c-58.026667 0-102.4-44.373333-102.4-102.4s44.373333-102.4 102.4-102.4 102.4 44.373333 102.4 102.4-44.373333 102.4-102.4 102.4z m0-170.666667c-37.546667 0-68.266667 30.72-68.266666 68.266667s30.72 68.266667 68.266666 68.266667 68.266667-30.72 68.266667-68.266667-30.72-68.266667-68.266667-68.266667z" fill="#1296db" p-id="4207"></path><path d="M658.773333 662.186667s0-3.413333 0 0c-6.826667 0-13.653333-3.413333-13.653333-10.24-30.72-54.613333-88.746667-88.746667-150.186667-88.746667s-119.466667 34.133333-150.186666 88.746667c-3.413333 3.413333-6.826667 6.826667-13.653334 10.24-6.826667 0-10.24 0-13.653333-6.826667-40.96-44.373333-61.44-102.4-61.44-160.426667 0-133.12 105.813333-238.933333 238.933333-238.933333s238.933333 105.813333 238.933334 238.933333c0 58.026667-20.48 116.053333-61.44 160.426667-3.413333 3.413333-6.826667 6.826667-13.653334 6.826667z m-163.84-133.12c64.853333 0 126.293333 30.72 167.253334 85.333333 23.893333-34.133333 37.546667-75.093333 37.546666-119.466667 0-112.64-92.16-204.8-204.8-204.8s-204.8 92.16-204.8 204.8c0 44.373333 13.653333 85.333333 37.546667 119.466667 40.96-54.613333 102.4-85.333333 167.253333-85.333333z" fill="#1296db" p-id="4208"></path><path d="M494.933333 733.866667c-133.12 0-238.933333-105.813333-238.933333-238.933334s105.813333-238.933333 238.933333-238.933333 238.933333 105.813333 238.933334 238.933333-105.813333 238.933333-238.933334 238.933334z m0-443.733334c-112.64 0-204.8 92.16-204.8 204.8s92.16 204.8 204.8 204.8 204.8-92.16 204.8-204.8-92.16-204.8-204.8-204.8z" fill="#1296db" p-id="4209"></path><path d="M102.4 102.4m-17.066667 0a17.066667 17.066667 0 1 0 34.133334 0 17.066667 17.066667 0 1 0-34.133334 0Z" fill="#1296db" p-id="4210"></path><path d="M170.666667 102.4m-17.066667 0a17.066667 17.066667 0 1 0 34.133333 0 17.066667 17.066667 0 1 0-34.133333 0Z" fill="#1296db" p-id="4211"></path><path d="M238.933333 102.4m-17.066666 0a17.066667 17.066667 0 1 0 34.133333 0 17.066667 17.066667 0 1 0-34.133333 0Z" fill="#1296db" p-id="4212"></path></svg>